<svg width="108" height="38" viewBox="0 0 108 38" fill="none" xmlns="http://www.w3.org/2000/svg">
<rect x="0.75" y="0.75" width="106.5" height="36.5" rx="4.25" fill="#EFFBFF" fill-opacity="0.5" stroke="#14A6DA" stroke-width="1.5"/>
<path d="M30.9834 19.2V17.6H40.5834V19.2H30.9834ZM39.4434 12H41.1434V26H39.4434V12ZM30.0434 12H31.7434V26H30.0434V12ZM43.4402 21.4C43.4402 20.4667 43.6469 19.64 44.0602 18.92C44.4869 18.2 45.0602 17.6333 45.7802 17.22C46.5002 16.8067 47.3069 16.6 48.2002 16.6C49.1069 16.6 49.9136 16.8067 50.6202 17.22C51.3402 17.6333 51.9069 18.2 52.3202 18.92C52.7469 19.64 52.9602 20.4667 52.9602 21.4C52.9602 22.32 52.7469 23.1467 52.3202 23.88C51.9069 24.6 51.3402 25.1667 50.6202 25.58C49.9136 25.9933 49.1069 26.2 48.2002 26.2C47.3069 26.2 46.5002 25.9933 45.7802 25.58C45.0602 25.1667 44.4869 24.6 44.0602 23.88C43.6469 23.1467 43.4402 22.32 43.4402 21.4ZM45.0602 21.4C45.0602 22.04 45.1936 22.6067 45.4602 23.1C45.7402 23.5933 46.1136 23.9867 46.5802 24.28C47.0602 24.56 47.6002 24.7 48.2002 24.7C48.8002 24.7 49.3336 24.56 49.8002 24.28C50.2802 23.9867 50.6536 23.5933 50.9202 23.1C51.2002 22.6067 51.3402 22.04 51.3402 21.4C51.3402 20.76 51.2002 20.1933 50.9202 19.7C50.6536 19.1933 50.2802 18.8 49.8002 18.52C49.3336 18.24 48.8002 18.1 48.2002 18.1C47.6002 18.1 47.0602 18.24 46.5802 18.52C46.1136 18.8 45.7402 19.1933 45.4602 19.7C45.1936 20.1933 45.0602 20.76 45.0602 21.4ZM67.7582 20.2V26H66.1582V20.4C66.1582 19.6133 66.0115 19.0333 65.7182 18.66C65.4382 18.2867 64.9982 18.1 64.3982 18.1C63.9582 18.1 63.5782 18.1933 63.2582 18.38C62.9382 18.5533 62.6915 18.8133 62.5182 19.16C62.3449 19.5067 62.2582 19.92 62.2582 20.4V26H60.6582V20.4C60.6582 19.6133 60.5115 19.0333 60.2182 18.66C59.9382 18.2867 59.4982 18.1 58.8982 18.1C58.4582 18.1 58.0782 18.1933 57.7582 18.38C57.4382 18.5533 57.1915 18.8133 57.0182 19.16C56.8449 19.5067 56.7582 19.92 56.7582 20.4V26H55.1582V16.8H56.7582V18.14C57.0382 17.62 57.3849 17.2333 57.7982 16.98C58.2249 16.7267 58.7249 16.6 59.2982 16.6C59.9382 16.6 60.4849 16.7533 60.9382 17.06C61.4049 17.3533 61.7449 17.7733 61.9582 18.32C62.2782 17.7467 62.6782 17.32 63.1582 17.04C63.6382 16.7467 64.1849 16.6 64.7982 16.6C65.4249 16.6 65.9582 16.74 66.3982 17.02C66.8382 17.3 67.1715 17.7133 67.3982 18.26C67.6382 18.7933 67.7582 19.44 67.7582 20.2ZM74.3237 26.2C73.4703 26.2 72.7103 26 72.0437 25.6C71.3903 25.1867 70.877 24.62 70.5037 23.9C70.1437 23.18 69.9637 22.3467 69.9637 21.4C69.9637 20.44 70.1503 19.6 70.5237 18.88C70.9103 18.16 71.4437 17.6 72.1237 17.2C72.817 16.8 73.617 16.6 74.5237 16.6C75.4303 16.6 76.2037 16.7933 76.8437 17.18C77.497 17.5533 77.997 18.0933 78.3437 18.8C78.6903 19.5067 78.8637 20.3467 78.8637 21.32C78.8637 21.4133 78.857 21.5133 78.8437 21.62C78.8437 21.7133 78.8437 21.7733 78.8437 21.8H70.9837V20.44H77.5837L76.9437 21.36C76.9837 21.2933 77.0237 21.1933 77.0637 21.06C77.1037 20.9133 77.1237 20.7933 77.1237 20.7C77.1237 20.1533 77.0103 19.68 76.7837 19.28C76.5703 18.88 76.2703 18.5667 75.8837 18.34C75.497 18.1133 75.0437 18 74.5237 18C73.9103 18 73.3837 18.1333 72.9437 18.4C72.517 18.6533 72.1837 19.0267 71.9437 19.52C71.717 20 71.597 20.5933 71.5837 21.3C71.5837 22.02 71.697 22.6333 71.9237 23.14C72.1503 23.6467 72.4837 24.0333 72.9237 24.3C73.3637 24.5667 73.897 24.7 74.5237 24.7C75.1503 24.7 75.7037 24.5667 76.1837 24.3C76.6637 24.02 77.0703 23.6 77.4037 23.04L78.7037 23.86C78.2237 24.6333 77.617 25.22 76.8837 25.62C76.1637 26.0067 75.3103 26.2 74.3237 26.2Z" fill="#14A6DA"/>
</svg>
