<svg width="273" height="65" viewBox="0 0 273 65" fill="none" xmlns="http://www.w3.org/2000/svg">
<path d="M271 55.5H272.5V52.5H271V55.5ZM89 55.5H271V52.5H89V55.5Z" fill="white"/>
<path d="M1.98276 50.5001L0.482859 50.5173L0.517339 53.5171L2.01724 53.4999L1.98276 50.5001ZM2.01724 53.4999L89.0172 52.4999L88.9828 49.5001L1.98276 50.5001L2.01724 53.4999Z" fill="#14A6DA"/>
<path d="M8.76364 38.55L10.1136 34.95H24.0636L25.4136 38.55H8.76364ZM16.9986 23.61L11.6886 36.12L11.3286 36.93L6.64864 48H2.37364L16.9986 14.925L31.6236 48H27.3486L22.7586 37.2L22.3986 36.3L16.9986 23.61ZM34.8257 38.46C35.5457 39.72 36.2957 40.83 37.0757 41.79C37.8857 42.75 38.7857 43.5 39.7757 44.04C40.7657 44.58 41.8907 44.85 43.1507 44.85C44.8307 44.85 46.1807 44.385 47.2007 43.455C48.2207 42.525 48.7307 41.34 48.7307 39.9C48.7307 38.49 48.4007 37.365 47.7407 36.525C47.0807 35.685 46.2107 35.01 45.1307 34.5C44.0807 33.96 42.9557 33.48 41.7557 33.06C40.9757 32.79 40.1057 32.445 39.1457 32.025C38.1857 31.575 37.2707 31.02 36.4007 30.36C35.5307 29.67 34.8107 28.83 34.2407 27.84C33.7007 26.85 33.4307 25.635 33.4307 24.195C33.4307 22.635 33.8207 21.24 34.6007 20.01C35.3807 18.78 36.4607 17.82 37.8407 17.13C39.2207 16.41 40.7957 16.05 42.5657 16.05C44.2757 16.05 45.7607 16.38 47.0207 17.04C48.3107 17.67 49.4057 18.495 50.3057 19.515C51.2057 20.505 51.9107 21.555 52.4207 22.665L49.1357 24.555C48.7457 23.775 48.2507 23.01 47.6507 22.26C47.0507 21.51 46.3157 20.895 45.4457 20.415C44.6057 19.935 43.5707 19.695 42.3407 19.695C40.6307 19.695 39.3857 20.115 38.6057 20.955C37.8257 21.765 37.4357 22.68 37.4357 23.7C37.4357 24.57 37.6607 25.38 38.1107 26.13C38.5607 26.85 39.3107 27.54 40.3607 28.2C41.4407 28.83 42.8957 29.46 44.7257 30.09C45.5657 30.39 46.4507 30.78 47.3807 31.26C48.3107 31.74 49.1657 32.355 49.9457 33.105C50.7557 33.825 51.4157 34.71 51.9257 35.76C52.4357 36.78 52.6907 38.01 52.6907 39.45C52.6907 40.83 52.4207 42.075 51.8807 43.185C51.3707 44.295 50.6507 45.24 49.7207 46.02C48.8207 46.8 47.7857 47.4 46.6157 47.82C45.4757 48.24 44.2757 48.45 43.0157 48.45C41.3057 48.45 39.7157 48.09 38.2457 47.37C36.8057 46.62 35.5307 45.645 34.4207 44.445C33.3407 43.215 32.4557 41.91 31.7657 40.53L34.8257 38.46ZM56.509 16.5H60.334V48H56.509V16.5ZM65.959 48H58.624V44.175H65.959C67.729 44.175 69.349 43.905 70.819 43.365C72.289 42.795 73.549 42 74.599 40.98C75.649 39.93 76.459 38.67 77.029 37.2C77.599 35.73 77.884 34.08 77.884 32.25C77.884 30.42 77.599 28.77 77.029 27.3C76.459 25.83 75.649 24.585 74.599 23.565C73.549 22.515 72.289 21.72 70.819 21.18C69.349 20.61 67.729 20.325 65.959 20.325H58.624V16.5H65.959C69.019 16.5 71.734 17.16 74.104 18.48C76.474 19.8 78.334 21.645 79.684 24.015C81.034 26.355 81.709 29.1 81.709 32.25C81.709 35.4 81.034 38.16 79.684 40.53C78.334 42.87 76.474 44.7 74.104 46.02C71.734 47.34 69.019 48 65.959 48Z" fill="white"/>
<path d="M98.1561 38.46C98.8761 39.72 99.6261 40.83 100.406 41.79C101.216 42.75 102.116 43.5 103.106 44.04C104.096 44.58 105.221 44.85 106.481 44.85C108.161 44.85 109.511 44.385 110.531 43.455C111.551 42.525 112.061 41.34 112.061 39.9C112.061 38.49 111.731 37.365 111.071 36.525C110.411 35.685 109.541 35.01 108.461 34.5C107.411 33.96 106.286 33.48 105.086 33.06C104.306 32.79 103.436 32.445 102.476 32.025C101.516 31.575 100.601 31.02 99.7311 30.36C98.8611 29.67 98.1411 28.83 97.5711 27.84C97.0311 26.85 96.7611 25.635 96.7611 24.195C96.7611 22.635 97.1511 21.24 97.9311 20.01C98.7111 18.78 99.7911 17.82 101.171 17.13C102.551 16.41 104.126 16.05 105.896 16.05C107.606 16.05 109.091 16.38 110.351 17.04C111.641 17.67 112.736 18.495 113.636 19.515C114.536 20.505 115.241 21.555 115.751 22.665L112.466 24.555C112.076 23.775 111.581 23.01 110.981 22.26C110.381 21.51 109.646 20.895 108.776 20.415C107.936 19.935 106.901 19.695 105.671 19.695C103.961 19.695 102.716 20.115 101.936 20.955C101.156 21.765 100.766 22.68 100.766 23.7C100.766 24.57 100.991 25.38 101.441 26.13C101.891 26.85 102.641 27.54 103.691 28.2C104.771 28.83 106.226 29.46 108.056 30.09C108.896 30.39 109.781 30.78 110.711 31.26C111.641 31.74 112.496 32.355 113.276 33.105C114.086 33.825 114.746 34.71 115.256 35.76C115.766 36.78 116.021 38.01 116.021 39.45C116.021 40.83 115.751 42.075 115.211 43.185C114.701 44.295 113.981 45.24 113.051 46.02C112.151 46.8 111.116 47.4 109.946 47.82C108.806 48.24 107.606 48.45 106.346 48.45C104.636 48.45 103.046 48.09 101.576 47.37C100.136 46.62 98.8611 45.645 97.7511 44.445C96.6711 43.215 95.7861 41.91 95.0961 40.53L98.1561 38.46ZM121.234 37.65C121.234 39.09 121.534 40.365 122.134 41.475C122.764 42.585 123.604 43.47 124.654 44.13C125.734 44.76 126.949 45.075 128.299 45.075C129.409 45.075 130.444 44.91 131.404 44.58C132.394 44.22 133.249 43.755 133.969 43.185C134.689 42.585 135.199 41.955 135.499 41.295V45.795C134.779 46.635 133.744 47.295 132.394 47.775C131.074 48.225 129.709 48.45 128.299 48.45C126.289 48.45 124.474 47.985 122.854 47.055C121.234 46.125 119.944 44.85 118.984 43.23C118.054 41.58 117.589 39.72 117.589 37.65C117.589 35.55 118.054 33.69 118.984 32.07C119.944 30.45 121.234 29.175 122.854 28.245C124.474 27.315 126.289 26.85 128.299 26.85C129.709 26.85 131.074 27.09 132.394 27.57C133.744 28.02 134.779 28.665 135.499 29.505V34.005C135.199 33.315 134.689 32.685 133.969 32.115C133.249 31.545 132.394 31.095 131.404 30.765C130.444 30.405 129.409 30.225 128.299 30.225C126.949 30.225 125.734 30.54 124.654 31.17C123.604 31.8 122.764 32.685 122.134 33.825C121.534 34.935 121.234 36.21 121.234 37.65ZM142.904 27.3V48H139.304V27.3H142.904ZM149.159 31.26C148.679 30.9 148.244 30.645 147.854 30.495C147.464 30.315 146.969 30.225 146.369 30.225C145.469 30.225 144.764 30.45 144.254 30.9C143.744 31.35 143.384 31.965 143.174 32.745C142.994 33.525 142.904 34.41 142.904 35.4H141.284C141.284 33.75 141.569 32.295 142.139 31.035C142.739 29.745 143.504 28.725 144.434 27.975C145.364 27.225 146.309 26.85 147.269 26.85C148.019 26.85 148.709 26.955 149.339 27.165C149.999 27.345 150.599 27.72 151.139 28.29L149.159 31.26ZM160.279 48.45C158.359 48.45 156.649 48 155.149 47.1C153.679 46.17 152.524 44.895 151.684 43.275C150.874 41.655 150.469 39.78 150.469 37.65C150.469 35.49 150.889 33.6 151.729 31.98C152.599 30.36 153.799 29.1 155.329 28.2C156.889 27.3 158.689 26.85 160.729 26.85C162.769 26.85 164.509 27.285 165.949 28.155C167.419 28.995 168.544 30.21 169.324 31.8C170.104 33.39 170.494 35.28 170.494 37.47C170.494 37.68 170.479 37.905 170.449 38.145C170.449 38.355 170.449 38.49 170.449 38.55H152.764V35.49H167.614L166.174 37.56C166.264 37.41 166.354 37.185 166.444 36.885C166.534 36.555 166.579 36.285 166.579 36.075C166.579 34.845 166.324 33.78 165.814 32.88C165.334 31.98 164.659 31.275 163.789 30.765C162.919 30.255 161.899 30 160.729 30C159.349 30 158.164 30.3 157.174 30.9C156.214 31.47 155.464 32.31 154.924 33.42C154.414 34.5 154.144 35.835 154.114 37.425C154.114 39.045 154.369 40.425 154.879 41.565C155.389 42.705 156.139 43.575 157.129 44.175C158.119 44.775 159.319 45.075 160.729 45.075C162.139 45.075 163.384 44.775 164.464 44.175C165.544 43.545 166.459 42.6 167.209 41.34L170.134 43.185C169.054 44.925 167.689 46.245 166.039 47.145C164.419 48.015 162.499 48.45 160.279 48.45ZM181.639 48.45C179.719 48.45 178.009 48 176.509 47.1C175.039 46.17 173.884 44.895 173.044 43.275C172.234 41.655 171.829 39.78 171.829 37.65C171.829 35.49 172.249 33.6 173.089 31.98C173.959 30.36 175.159 29.1 176.689 28.2C178.249 27.3 180.049 26.85 182.089 26.85C184.129 26.85 185.869 27.285 187.309 28.155C188.779 28.995 189.904 30.21 190.684 31.8C191.464 33.39 191.854 35.28 191.854 37.47C191.854 37.68 191.839 37.905 191.809 38.145C191.809 38.355 191.809 38.49 191.809 38.55H174.124V35.49H188.974L187.534 37.56C187.624 37.41 187.714 37.185 187.804 36.885C187.894 36.555 187.939 36.285 187.939 36.075C187.939 34.845 187.684 33.78 187.174 32.88C186.694 31.98 186.019 31.275 185.149 30.765C184.279 30.255 183.259 30 182.089 30C180.709 30 179.524 30.3 178.534 30.9C177.574 31.47 176.824 32.31 176.284 33.42C175.774 34.5 175.504 35.835 175.474 37.425C175.474 39.045 175.729 40.425 176.239 41.565C176.749 42.705 177.499 43.575 178.489 44.175C179.479 44.775 180.679 45.075 182.089 45.075C183.499 45.075 184.744 44.775 185.824 44.175C186.904 43.545 187.819 42.6 188.569 41.34L191.494 43.185C190.414 44.925 189.049 46.245 187.399 47.145C185.779 48.015 183.859 48.45 181.639 48.45ZM208.263 35.4C208.263 33.69 207.888 32.4 207.138 31.53C206.388 30.66 205.293 30.225 203.853 30.225C202.803 30.225 201.873 30.45 201.063 30.9C200.283 31.32 199.668 31.92 199.218 32.7C198.798 33.48 198.588 34.38 198.588 35.4V48H194.988V27.3H198.588V30.54C199.278 29.28 200.133 28.35 201.153 27.75C202.203 27.15 203.403 26.85 204.753 26.85C206.943 26.85 208.668 27.585 209.928 29.055C211.218 30.495 211.863 32.46 211.863 34.95V48H208.263V35.4ZM216.83 18.75C216.83 18.06 217.07 17.475 217.55 16.995C218.06 16.515 218.645 16.275 219.305 16.275C219.995 16.275 220.58 16.515 221.06 16.995C221.54 17.475 221.78 18.06 221.78 18.75C221.78 19.41 221.54 19.995 221.06 20.505C220.58 20.985 219.995 21.225 219.305 21.225C218.645 21.225 218.06 20.985 217.55 20.505C217.07 19.995 216.83 19.41 216.83 18.75ZM217.505 27.3H221.105V48H217.505V27.3ZM239.995 35.4C239.995 33.69 239.62 32.4 238.87 31.53C238.12 30.66 237.025 30.225 235.585 30.225C234.535 30.225 233.605 30.45 232.795 30.9C232.015 31.32 231.4 31.92 230.95 32.7C230.53 33.48 230.32 34.38 230.32 35.4V48H226.72V27.3H230.32V30.54C231.01 29.28 231.865 28.35 232.885 27.75C233.935 27.15 235.135 26.85 236.485 26.85C238.675 26.85 240.4 27.585 241.66 29.055C242.95 30.495 243.595 32.46 243.595 34.95V48H239.995V35.4ZM247.167 49.35H250.812C250.812 50.34 251.082 51.255 251.622 52.095C252.162 52.965 252.927 53.655 253.917 54.165C254.907 54.705 256.077 54.975 257.427 54.975C258.477 54.975 259.512 54.72 260.532 54.21C261.552 53.7 262.392 52.89 263.052 51.78C263.742 50.7 264.087 49.29 264.087 47.55V27.3H267.687V47.55C267.687 49.92 267.192 51.9 266.202 53.49C265.212 55.11 263.937 56.325 262.377 57.135C260.817 57.945 259.167 58.35 257.427 58.35C255.417 58.35 253.632 57.975 252.072 57.225C250.542 56.475 249.342 55.41 248.472 54.03C247.602 52.68 247.167 51.12 247.167 49.35ZM246.762 37.65C246.762 35.4 247.227 33.48 248.157 31.89C249.087 30.27 250.332 29.025 251.892 28.155C253.452 27.285 255.162 26.85 257.022 26.85C258.762 26.85 260.277 27.285 261.567 28.155C262.857 29.025 263.862 30.27 264.582 31.89C265.332 33.48 265.707 35.4 265.707 37.65C265.707 39.87 265.332 41.79 264.582 43.41C263.862 45.03 262.857 46.275 261.567 47.145C260.277 48.015 258.762 48.45 257.022 48.45C255.162 48.45 253.452 48.015 251.892 47.145C250.332 46.275 249.087 45.03 248.157 43.41C247.227 41.79 246.762 39.87 246.762 37.65ZM250.407 37.65C250.407 39.24 250.722 40.59 251.352 41.7C252.012 42.81 252.882 43.65 253.962 44.22C255.042 44.79 256.212 45.075 257.472 45.075C258.522 45.075 259.557 44.79 260.577 44.22C261.597 43.65 262.437 42.81 263.097 41.7C263.757 40.59 264.087 39.24 264.087 37.65C264.087 36.45 263.892 35.4 263.502 34.5C263.112 33.57 262.587 32.79 261.927 32.16C261.297 31.53 260.592 31.05 259.812 30.72C259.032 30.39 258.252 30.225 257.472 30.225C256.212 30.225 255.042 30.51 253.962 31.08C252.882 31.65 252.012 32.49 251.352 33.6C250.722 34.71 250.407 36.06 250.407 37.65Z" fill="#F35A56"/>
</svg>
